<svg width="136" height="46" viewBox="0 0 136 46" fill="none" xmlns="http://www.w3.org/2000/svg">
<path d="M15.353 -2.51178e-07C18.6072 -2.51178e-07 19.6298 2.24528 20.4877 4.48703C20.8481 5.43899 29.3047 27.7158 29.559 28.3844C29.6267 28.571 29.581 28.8771 29.2828 28.988C28.9828 29.0971 24.5889 30.7406 24.3456 30.8286C24.1023 30.9183 23.8298 30.7881 23.742 30.5541C23.6505 30.3235 21.8267 25.467 21.6219 24.925H9.08776C8.8902 25.467 7.04448 30.3341 6.96216 30.5541C6.87802 30.7775 6.61643 30.9289 6.35668 30.8286C6.09692 30.73 1.68658 29.0865 1.42316 28.988C1.17073 28.893 1.05548 28.6167 1.14329 28.3844C1.45426 27.5504 9.78288 5.63078 10.2073 4.48703C11.0341 2.27871 12.0914 -2.51178e-07 15.353 -2.51178e-07ZM0.473778 39.8607C0.210365 39.8607 0 40.0718 0 40.3287V45.5355C0 45.7924 0.210365 46 0.473778 46H30.2194C30.4883 46 30.6986 45.7924 30.6986 45.5355V40.3287C30.6986 40.0718 30.4883 39.8607 30.2194 39.8607H0.473778ZM15.3237 7.27427L11.0871 19.5124H19.6298L15.3786 7.27427H15.3237ZM78.896 27.341C78.2722 27.5433 77.8606 27.5926 77.3704 27.5926C76.357 27.5926 75.7954 27.2073 75.7954 26.2078C75.7954 25.1661 76.5088 24.8177 77.91 24.8177C78.2521 24.8177 78.5887 24.8652 78.746 24.918V25.6641C78.746 26.4682 78.7917 26.9961 78.896 27.341ZM82.4978 28.534C81.7496 27.4413 81.5539 26.7973 81.5539 25.4195V22.6217C81.5539 21.1154 81.371 20.5717 80.9576 20.0227C80.3813 19.245 79.421 18.9071 77.6557 18.9071C76.4064 18.9071 75.1936 19.0373 74.0192 19.3259L74.4436 21.3143C75.2375 21.2069 76.0698 21.1154 76.657 21.1154C78.532 21.1154 78.746 21.3759 78.746 22.729V23.234C78.3289 23.1267 77.8606 23.0493 77.3173 23.0493C74.4948 23.0493 73.0039 24.3778 73.0039 26.5773C73.0039 28.6396 74.5972 29.764 76.5381 29.764C77.2625 29.764 78.0198 29.6355 78.6198 29.3997C78.982 29.2484 79.1393 29.1587 79.6076 28.8666C79.8893 29.2607 80.4545 29.6637 80.685 29.7393L82.4978 28.534ZM110.418 27.341C109.79 27.5433 109.386 27.5926 108.892 27.5926C107.875 27.5926 107.306 27.2073 107.306 26.2078C107.306 25.1661 108.029 24.8177 109.434 24.8177C109.776 24.8177 110.114 24.8652 110.268 24.918V25.6641C110.268 26.4682 110.312 26.9961 110.418 27.341ZM114.023 28.534C113.27 27.4413 113.078 26.7973 113.078 25.4195V22.6217C113.078 21.1154 112.891 20.5717 112.474 20.0227C111.905 19.245 110.943 18.9071 109.172 18.9071C107.925 18.9071 106.704 19.0373 105.53 19.3259L105.949 21.3143C106.745 21.2069 107.579 21.1154 108.182 21.1154C110.046 21.1154 110.268 21.3759 110.268 22.729V23.234C109.851 23.1267 109.386 23.0493 108.832 23.0493C106.006 23.0493 104.509 24.3778 104.509 26.5773C104.509 28.6396 106.106 29.764 108.056 29.764C108.79 29.764 109.54 29.6355 110.134 29.3997C110.502 29.2484 110.654 29.1587 111.122 28.8666C111.407 29.2607 111.973 29.6637 112.205 29.7393L114.023 28.534ZM136 29.53C136 29.53 134.452 26.3574 134.074 25.6359C133.648 24.823 133.252 24.2616 132.382 24.0593V24.0135C132.965 23.9062 133.43 23.5666 133.938 22.5284C134.42 21.5166 134.562 21.2984 134.846 21.0574C135.124 20.8181 135.504 20.9043 135.504 20.9043L135.647 19.0338C135.243 18.981 134.795 18.9793 134.332 19.0039C133.563 19.0479 133.166 19.2608 132.788 19.6268C132.491 19.9066 132.29 20.3254 132.041 20.8058C131.778 21.3301 131.57 21.7524 131.295 22.2856C131.023 22.8328 130.895 23.0792 130.161 23.0792H129.684V14.7931H126.857V29.53H129.684V25.2928L130.07 25.2857C130.88 25.2857 131.023 25.4811 131.451 26.3028C131.952 27.2829 132.912 29.53 132.912 29.53H136ZM56.3833 29.53H59.6449L54.7113 15.0395C54.1918 14.8723 53.5498 14.7685 52.8638 14.7685C52.1156 14.7685 51.8485 14.8635 51.2632 15.0395L46.0425 29.53H49.1723C49.1723 29.53 49.5949 28.2595 50.0925 26.6846H55.4998C55.9827 28.2577 56.3833 29.53 56.3833 29.53ZM50.8864 24.2546C50.8864 24.2546 51.79 21.346 51.9309 20.8937C52.2894 19.7218 52.8345 17.8601 52.8345 17.8601H52.9242C52.9242 17.8601 53.429 19.7887 53.7583 20.8726C53.8827 21.3037 54.7461 24.2546 54.7461 24.2546H50.8864ZM87.3124 22.597C86.3155 22.597 85.5051 23.3801 85.5051 24.3391C85.5051 25.3051 86.3155 26.0829 87.3124 26.0829C88.3112 26.0829 89.1179 25.3051 89.1179 24.3391C89.1179 23.3801 88.3112 22.597 87.3124 22.597ZM63.5174 14.7931H60.6839V29.5282H63.5174V14.7931ZM119.813 21.2492C121.379 21.2809 121.573 21.5923 121.573 22.8557V29.53H124.381V22.6217C124.381 21.1154 124.198 20.5717 123.781 20.0227C123.204 19.245 122.072 18.9071 120.157 18.9071C118.262 18.9071 117.054 19.1007 115.501 19.5459V29.53H118.338V21.3759C119.083 21.2721 119.215 21.2492 119.813 21.2492ZM70.5253 14.5309C68.7546 14.5309 67.7906 14.8688 67.2235 15.6448C66.8064 16.1955 66.6216 16.7516 66.6216 18.2613V19.5459H65.215V21.7489H66.6216V29.53H69.4314L69.4241 21.7489H72.2247V19.5459H69.4241L69.4314 18.3652C69.4314 17.0138 69.6454 16.7516 71.5222 16.7516C71.7253 16.7516 71.954 16.7621 72.1972 16.7797L72.6399 14.6629C71.9466 14.5749 71.2369 14.5309 70.5253 14.5309ZM93.0691 14.6682C94.0331 14.6136 96.188 14.5362 97.5398 14.5362C97.7868 14.5362 98.0428 14.538 98.299 14.5503C100.957 14.5503 102.481 16.412 102.481 18.5974C102.481 20.0843 101.773 21.0715 100.114 21.6592C102.065 22.0744 103.088 23.5402 103.088 25.3333C103.088 26.6495 102.702 27.6947 101.994 28.4073C101.076 29.2766 99.6855 29.764 97.8343 29.764C96.188 29.764 94.1209 29.7147 93.0691 29.6549V14.6682ZM97.5398 17.0824C97.0715 17.0824 96.4916 17.0912 95.9172 17.1106V20.6491H97.5416C98.1855 20.6491 98.7032 20.4767 99.0563 20.1441C99.3928 19.8309 99.5685 19.3875 99.5685 18.8614C99.5685 17.7299 98.9319 17.0894 97.7483 17.0824H97.5398ZM97.5983 27.2231H97.7209C99.1971 27.2231 100.101 26.4682 100.112 24.9479C100.097 24.4024 99.8794 23.8992 99.4898 23.5349C99.0636 23.1232 98.4599 22.9085 97.752 22.9085H95.9172V27.2073C96.4349 27.2178 97.0057 27.2196 97.5983 27.2231Z" fill="#EE2A23"/>
</svg>
