<svg width="90" height="30" viewBox="0 0 90 30" fill="none" xmlns="http://www.w3.org/2000/svg">
<path d="M10.1601 -4.01323e-07C12.3136 -4.01323e-07 12.9903 1.46431 13.558 2.92633C13.7965 3.54716 19.3928 18.0755 19.5611 18.5116C19.6059 18.6332 19.5756 18.8329 19.3783 18.9052C19.1798 18.9764 16.2721 20.0482 16.1111 20.1056C15.9501 20.1641 15.7697 20.0792 15.7116 19.9266C15.6511 19.7762 14.4442 16.6089 14.3086 16.2555H6.01396C5.88322 16.6089 4.66179 19.7831 4.60731 19.9266C4.55163 20.0723 4.37852 20.171 4.20662 20.1056C4.03473 20.0413 1.11612 18.9695 0.9418 18.9052C0.774745 18.8432 0.698481 18.6631 0.756587 18.5116C0.962379 17.9676 6.47397 3.67225 6.75481 2.92633C7.30198 1.48611 8.00167 -4.01323e-07 10.1601 -4.01323e-07ZM0.31353 25.9961C0.139212 25.9961 0 26.1338 0 26.3014V29.697C0 29.8646 0.139212 30 0.31353 30H19.9981C20.1761 30 20.3153 29.8646 20.3153 29.697V26.3014C20.3153 26.1338 20.1761 25.9961 19.9981 25.9961H0.31353ZM10.1407 4.74409L7.33708 12.7255H12.9903L10.177 4.74409H10.1407ZM52.2106 17.8311C51.7978 17.963 51.5254 17.9952 51.201 17.9952C50.5303 17.9952 50.1587 17.7439 50.1587 17.092C50.1587 16.4127 50.6308 16.1854 51.5581 16.1854C51.7845 16.1854 52.0072 16.2164 52.1113 16.2509V16.7374C52.1113 17.2619 52.1416 17.6062 52.2106 17.8311ZM54.5941 18.6091C54.099 17.8965 53.9695 17.4765 53.9695 16.5779V14.7533C53.9695 13.7709 53.8484 13.4163 53.5749 13.0583C53.1935 12.5511 52.558 12.3307 51.3898 12.3307C50.563 12.3307 49.7604 12.4157 48.9833 12.6039L49.2641 13.9006C49.7895 13.8306 50.3403 13.7709 50.7289 13.7709C51.9697 13.7709 52.1113 13.9408 52.1113 14.8233V15.1526C51.8353 15.0826 51.5254 15.0321 51.1659 15.0321C49.298 15.0321 48.3114 15.8986 48.3114 17.333C48.3114 18.678 49.3658 19.4113 50.6502 19.4113C51.1296 19.4113 51.6307 19.3275 52.0278 19.1737C52.2675 19.0751 52.3716 19.0165 52.6815 18.826C52.8679 19.0831 53.242 19.3459 53.3945 19.3952L54.5941 18.6091ZM73.0706 17.8311C72.6554 17.963 72.3879 17.9952 72.061 17.9952C71.388 17.9952 71.0115 17.7439 71.0115 17.092C71.0115 16.4127 71.4896 16.1854 72.4193 16.1854C72.6457 16.1854 72.8696 16.2164 72.9713 16.2509V16.7374C72.9713 17.2619 73.0004 17.6062 73.0706 17.8311ZM75.4566 18.6091C74.9578 17.8965 74.8307 17.4765 74.8307 16.5779V14.7533C74.8307 13.7709 74.7073 13.4163 74.4312 13.0583C74.0548 12.5511 73.418 12.3307 72.2462 12.3307C71.4206 12.3307 70.6132 12.4157 69.836 12.6039L70.1133 13.9006C70.6398 13.8306 71.1918 13.7709 71.5913 13.7709C72.8249 13.7709 72.9713 13.9408 72.9713 14.8233V15.1526C72.6953 15.0826 72.3879 15.0321 72.0211 15.0321C70.1508 15.0321 69.1606 15.8986 69.1606 17.333C69.1606 18.678 70.2174 19.4113 71.5078 19.4113C71.9932 19.4113 72.4895 19.3275 72.883 19.1737C73.1263 19.0751 73.2268 19.0165 73.5367 18.826C73.7255 19.0831 74.0996 19.3459 74.2533 19.3952L75.4566 18.6091ZM90 19.2587C90 19.2587 88.9759 17.1896 88.7253 16.7191C88.4432 16.1889 88.1818 15.8228 87.6056 15.6908V15.661C87.9917 15.591 88.2992 15.3695 88.6357 14.6924C88.9541 14.0326 89.0485 13.8903 89.2361 13.7331C89.4201 13.577 89.6719 13.6332 89.6719 13.6332L89.7664 12.4134C89.4988 12.3789 89.2022 12.3778 88.896 12.3938C88.3876 12.4225 88.1249 12.5614 87.8743 12.8001C87.6782 12.9826 87.545 13.2557 87.3804 13.569C87.2061 13.9109 87.0681 14.1864 86.8865 14.5341C86.7061 14.891 86.6214 15.0516 86.136 15.0516H85.82V9.64769H83.9497V19.2587H85.82V16.4953L86.0754 16.4907C86.6117 16.4907 86.7061 16.6181 86.9894 17.154C87.3211 17.7932 87.9566 19.2587 87.9566 19.2587H90ZM37.3125 19.2587H39.4709L36.206 9.80835C35.8622 9.69933 35.4373 9.63163 34.9834 9.63163C34.4883 9.63163 34.3115 9.6936 33.9242 9.80835L30.4693 19.2587H32.5405C32.5405 19.2587 32.8202 18.4301 33.1494 17.403H36.7278C37.0474 18.429 37.3125 19.2587 37.3125 19.2587ZM33.6748 15.8182C33.6748 15.8182 34.2728 13.9213 34.366 13.6263C34.6033 12.8621 34.964 11.6479 34.964 11.6479H35.0233C35.0233 11.6479 35.3574 12.9057 35.5753 13.6126C35.6577 13.8937 36.229 15.8182 36.229 15.8182H33.6748ZM57.7803 14.7372C57.1205 14.7372 56.5843 15.2479 56.5843 15.8733C56.5843 16.5033 57.1205 17.0106 57.7803 17.0106C58.4412 17.0106 58.9751 16.5033 58.9751 15.8733C58.9751 15.2479 58.4412 14.7372 57.7803 14.7372ZM42.0336 9.64769H40.1584V19.2575H42.0336V9.64769ZM79.2879 13.8582C80.3242 13.8788 80.4525 14.0819 80.4525 14.9059V19.2587H82.3107V14.7533C82.3107 13.7709 82.1896 13.4163 81.9136 13.0583C81.5323 12.5511 80.7829 12.3307 79.5155 12.3307C78.2614 12.3307 77.4624 12.457 76.4347 12.7473V19.2587H78.3122V13.9408C78.8049 13.8731 78.8921 13.8582 79.2879 13.8582ZM46.6711 9.47671C45.4993 9.47671 44.8614 9.69704 44.4861 10.2031C44.2101 10.5623 44.0879 10.9249 44.0879 11.9096V12.7473H43.157V14.1841H44.0879V19.2587H45.9472L45.9424 14.1841H47.7957V12.7473H45.9424L45.9472 11.9773C45.9472 11.0959 46.0889 10.9249 47.3309 10.9249C47.4653 10.9249 47.6166 10.9318 47.7776 10.9433L48.0705 9.56277C47.6117 9.50539 47.142 9.47671 46.6711 9.47671ZM61.5898 9.56622C62.2278 9.53064 63.6538 9.48015 64.5484 9.48015C64.7118 9.48015 64.8813 9.48129 65.0508 9.48933C66.8097 9.48933 67.8181 10.7035 67.8181 12.1288C67.8181 13.0985 67.3496 13.7423 66.2516 14.1255C67.5433 14.3964 68.22 15.3523 68.22 16.5217C68.22 17.3801 67.9645 18.0617 67.4961 18.5265C66.8884 19.0934 65.9684 19.4113 64.7433 19.4113C63.6538 19.4113 62.2859 19.3792 61.5898 19.3401V9.56622ZM64.5484 11.1407C64.2385 11.1407 63.8548 11.1464 63.4746 11.1591V13.4668H64.5496C64.9757 13.4668 65.3183 13.3544 65.5519 13.1375C65.7747 12.9332 65.8909 12.644 65.8909 12.3009C65.8909 11.563 65.4696 11.1453 64.6864 11.1407H64.5484ZM64.5871 17.7542H64.6682C65.6451 17.7542 66.2432 17.2619 66.2504 16.2704C66.2407 15.9146 66.0967 15.5864 65.8388 15.3489C65.5568 15.0803 65.1573 14.9403 64.6888 14.9403H63.4746V17.7439C63.8172 17.7507 64.1949 17.7519 64.5871 17.7542Z" fill="#EE2A23"/>
</svg>
