<svg width="114" height="39" viewBox="0 0 114 39" fill="none" xmlns="http://www.w3.org/2000/svg">
<path d="M20.83 5.02807C19.4939 6.34539 17.3561 7.3844 15.2184 7.23597C14.9512 5.45481 15.9978 3.56232 17.2225 2.39343C18.5586 1.03901 20.8968 0.074215 22.7896 0C23.0122 1.85538 22.1438 3.67364 20.83 5.02807ZM22.7673 7.58849C19.672 7.44006 17.0221 9.05423 15.5524 9.05423C14.0604 9.05423 11.8113 7.6627 9.36184 7.69981C6.17749 7.73692 3.21582 9.23977 1.59025 11.6332C-1.74998 16.4201 0.721788 23.5076 3.95067 27.4039C5.53171 29.3335 7.42451 31.4486 9.91854 31.3744C12.279 31.3002 13.2142 30.0942 16.0646 30.0942C18.9372 30.0942 19.7611 31.3744 22.2551 31.3373C24.8382 31.3002 26.4638 29.4077 28.0448 27.4781C29.8486 25.2888 30.5834 23.1551 30.628 23.0438C30.5834 23.0067 25.6399 21.4296 25.5953 16.6798C25.5508 12.7093 29.4923 10.8168 29.6704 10.7055C27.4436 7.95956 23.9698 7.6627 22.7673 7.58849ZM40.6486 2.2079V31.1332H46.0375V21.2441H53.4974C60.3114 21.2441 65.0991 17.3478 65.0991 11.7074C65.0991 6.06708 60.4005 2.2079 53.6755 2.2079H40.6486ZM46.0375 5.99286H52.2503C56.9267 5.99286 59.5989 8.07088 59.5989 11.726C59.5989 15.3811 56.9267 17.4776 52.2281 17.4776H46.0375V5.99286ZM74.9416 31.3559C78.3264 31.3559 81.4662 29.9272 82.8914 27.6637H83.0027V31.1332H87.9908V16.7355C87.9908 12.5609 83.9825 9.8706 77.8142 9.8706C72.0913 9.8706 67.8603 12.598 67.7045 16.3459H72.5589C72.9597 14.5647 74.9416 13.3958 77.6583 13.3958C80.954 13.3958 82.8023 14.676 82.8023 17.0324V18.628L76.0773 18.9619C69.8199 19.2774 66.4352 21.411 66.4352 25.1218C66.4352 28.8696 69.9313 31.3559 74.9416 31.3559ZM76.3891 27.9234C73.5165 27.9234 71.6905 26.7731 71.6905 25.0105C71.6905 23.1922 73.4497 22.1346 76.8121 21.9677L82.8023 21.6522V23.285C82.8023 25.9938 80.041 27.9234 76.3891 27.9234ZM94.649 39C99.9042 39 102.376 37.3302 104.536 32.265L114 10.1489H108.522L102.176 27.2369H102.064L95.7178 10.1489H90.084L99.2139 31.2074L98.724 32.4876C97.9001 34.6584 96.564 35.4933 94.1813 35.4933C93.7582 35.4933 92.9343 35.4562 92.6003 35.4191V38.8887C92.912 38.9629 94.2481 39 94.649 39Z" fill="#414449"/>
</svg>
