<svg width="68" height="28" viewBox="0 0 68 28" fill="none" xmlns="http://www.w3.org/2000/svg">
<path d="M12.4249 3.6099C11.6279 4.55566 10.3528 5.30162 9.07763 5.19505C8.91823 3.91627 9.54252 2.55756 10.2731 1.71836C11.07 0.745956 12.4647 0.0532826 13.5938 0C13.7266 1.33206 13.2086 2.63749 12.4249 3.6099ZM13.5805 5.44814C11.7342 5.34158 10.1535 6.50048 9.27687 6.50048C8.38692 6.50048 7.04536 5.50143 5.58426 5.52807C3.68482 5.55471 1.91821 6.63368 0.948569 8.35205C-1.04385 11.7888 0.430541 16.8773 2.35654 19.6746C3.29962 21.0599 4.42865 22.5785 5.91633 22.5252C7.3243 22.4719 7.88217 21.6061 9.58237 21.6061C11.2958 21.6061 11.7873 22.5252 13.275 22.4986C14.8158 22.4719 15.7854 21.1132 16.7285 19.7279C17.8044 18.156 18.2427 16.6242 18.2693 16.5442C18.2427 16.5176 15.294 15.3853 15.2674 11.9753C15.2408 9.12464 17.5919 7.76594 17.6981 7.68601C16.3699 5.71456 14.2978 5.50143 13.5805 5.44814ZM24.2465 1.58516V22.352H27.461V15.2521H31.9107C35.9752 15.2521 38.831 12.4548 38.831 8.40533C38.831 4.35585 36.0284 1.58516 32.017 1.58516H24.2465ZM27.461 4.30257H31.1669C33.9563 4.30257 35.5502 5.79448 35.5502 8.41865C35.5502 11.0428 33.9563 12.548 31.1536 12.548H27.461V4.30257ZM44.702 22.5119C46.721 22.5119 48.5939 21.4862 49.444 19.8611H49.5104V22.352H52.4857V12.0152C52.4857 9.01808 50.0948 7.08658 46.4155 7.08658C43.0018 7.08658 40.4781 9.04472 40.3851 11.7355H43.2808C43.5199 10.4567 44.702 9.61751 46.3225 9.61751C48.2884 9.61751 49.3908 10.5366 49.3908 12.2284V13.3739L45.3794 13.6137C41.647 13.8402 39.628 15.372 39.628 18.0362C39.628 20.7269 41.7134 22.5119 44.702 22.5119ZM45.5654 20.0476C43.8519 20.0476 42.7627 19.2217 42.7627 17.9562C42.7627 16.6508 43.8121 15.8915 45.8178 15.7716L49.3908 15.5452V16.7174C49.3908 18.6622 47.7438 20.0476 45.5654 20.0476ZM56.4573 28C59.592 28 61.0664 26.8011 62.3548 23.1646L68 7.28639H64.7324L60.9468 19.5547H60.8804L57.0948 7.28639H53.7343L59.1802 22.4053L58.888 23.3245C58.3966 24.883 57.5996 25.4824 56.1783 25.4824C55.926 25.4824 55.4345 25.4558 55.2353 25.4291V27.9201C55.4212 27.9734 56.2182 28 56.4573 28Z" fill="#414449"/>
</svg>
