<svg width="28" height="36" viewBox="0 0 28 36" fill="none" xmlns="http://www.w3.org/2000/svg">
<path fill-rule="evenodd" clip-rule="evenodd" d="M19.1521 1.71838C19.1521 0.770854 18.3826 0 17.4366 0H11.0559C10.1099 0 9.34033 0.770815 9.34033 1.71838V5.35796H19.1522L19.1521 1.71838ZM18.3975 28.1231V28.3299C18.3975 29.6463 19.4268 30.6774 20.7411 30.6774C21.3945 30.6774 21.999 30.4251 22.4432 29.9676C22.8751 29.5224 23.103 28.9311 23.085 28.3027C23.0847 28.2944 23.0847 28.2865 23.0847 28.2783V28.2781V28.1228C23.0847 26.8064 22.0553 25.7754 20.7411 25.7754C19.4268 25.7757 18.3975 26.8067 18.3975 28.1231L18.3975 28.1231ZM24.9885 35.9999H3.50495C2.08599 35.9999 0.931641 34.8438 0.931641 33.4224V6.98964C0.931641 5.56835 2.08591 4.41211 3.50495 4.41211H7.62537V6.21729C7.62537 6.69173 8.00957 7.07652 8.48319 7.07652H20.0102C20.4839 7.07652 20.8681 6.69169 20.8681 6.21729V4.41211H24.9885C26.4074 4.41211 27.5618 5.56827 27.5618 6.98964V33.4224C27.5618 34.8437 26.4075 35.9999 24.9885 35.9999ZM24.8002 28.2669V28.1233V28.1232C24.8002 27.0394 24.3845 26.0213 23.6294 25.2563C22.866 24.4833 21.8403 24.0574 20.7411 24.0574C19.6587 24.0574 18.6423 24.4738 17.8788 25.2302C17.1071 25.9946 16.6819 27.0222 16.6819 28.1232V28.3301C16.6819 29.4142 17.0977 30.4323 17.8528 31.197C18.6162 31.97 19.6419 32.3959 20.7411 32.3959C21.8623 32.3959 22.9036 31.959 23.6735 31.1654C24.428 30.3875 24.8281 29.3586 24.8002 28.2669ZM22.2279 11.1312H6.26664C5.79267 11.1312 5.40882 11.516 5.40882 11.9904C5.40882 12.4648 5.79302 12.8496 6.26664 12.8496H22.2279C22.7015 12.8496 23.0857 12.4648 23.0857 11.9904C23.0857 11.516 22.7015 11.1312 22.2279 11.1312ZM22.2279 17.3195H6.26664C5.79267 17.3195 5.40882 17.704 5.40882 18.1787C5.40882 18.6531 5.79302 19.0379 6.26664 19.0379H22.2279C22.7015 19.0379 23.0857 18.6531 23.0857 18.1787C23.0857 17.7043 22.7015 17.3195 22.2279 17.3195ZM12.4448 23.5077H6.26664C5.79267 23.5077 5.40882 23.8923 5.40882 24.367C5.40882 24.8414 5.79302 25.2262 6.26664 25.2262H12.4448C12.9185 25.2262 13.3026 24.8414 13.3026 24.367C13.3026 23.8925 12.9184 23.5077 12.4448 23.5077Z" fill="white"/>
<path fill-rule="evenodd" clip-rule="evenodd" d="M19.1521 1.71838C19.1521 0.770854 18.3826 0 17.4366 0H11.0559C10.1099 0 9.34033 0.770815 9.34033 1.71838V5.35796H19.1522L19.1521 1.71838ZM18.3975 28.1231V28.3299C18.3975 29.6463 19.4268 30.6774 20.7411 30.6774C21.3945 30.6774 21.999 30.4251 22.4432 29.9676C22.8751 29.5224 23.103 28.9311 23.085 28.3027C23.0847 28.2944 23.0847 28.2865 23.0847 28.2783V28.2781V28.1228C23.0847 26.8064 22.0553 25.7754 20.7411 25.7754C19.4268 25.7757 18.3975 26.8067 18.3975 28.1231L18.3975 28.1231ZM24.9885 35.9999H3.50495C2.08599 35.9999 0.931641 34.8438 0.931641 33.4224V6.98964C0.931641 5.56835 2.08591 4.41211 3.50495 4.41211H7.62537V6.21729C7.62537 6.69173 8.00957 7.07652 8.48319 7.07652H20.0102C20.4839 7.07652 20.8681 6.69169 20.8681 6.21729V4.41211H24.9885C26.4074 4.41211 27.5618 5.56827 27.5618 6.98964V33.4224C27.5618 34.8437 26.4075 35.9999 24.9885 35.9999ZM24.8002 28.2669V28.1233V28.1232C24.8002 27.0394 24.3845 26.0213 23.6294 25.2563C22.866 24.4833 21.8403 24.0574 20.7411 24.0574C19.6587 24.0574 18.6423 24.4738 17.8788 25.2302C17.1071 25.9946 16.6819 27.0222 16.6819 28.1232V28.3301C16.6819 29.4142 17.0977 30.4323 17.8528 31.197C18.6162 31.97 19.6419 32.3959 20.7411 32.3959C21.8623 32.3959 22.9036 31.959 23.6735 31.1654C24.428 30.3875 24.8281 29.3586 24.8002 28.2669ZM22.2279 11.1312H6.26664C5.79267 11.1312 5.40882 11.516 5.40882 11.9904C5.40882 12.4648 5.79302 12.8496 6.26664 12.8496H22.2279C22.7015 12.8496 23.0857 12.4648 23.0857 11.9904C23.0857 11.516 22.7015 11.1312 22.2279 11.1312ZM22.2279 17.3195H6.26664C5.79267 17.3195 5.40882 17.704 5.40882 18.1787C5.40882 18.6531 5.79302 19.0379 6.26664 19.0379H22.2279C22.7015 19.0379 23.0857 18.6531 23.0857 18.1787C23.0857 17.7043 22.7015 17.3195 22.2279 17.3195ZM12.4448 23.5077H6.26664C5.79267 23.5077 5.40882 23.8923 5.40882 24.367C5.40882 24.8414 5.79302 25.2262 6.26664 25.2262H12.4448C12.9185 25.2262 13.3026 24.8414 13.3026 24.367C13.3026 23.8925 12.9184 23.5077 12.4448 23.5077Z" fill="url(#paint0_linear_38_1537)"/>
<defs>
<linearGradient id="paint0_linear_38_1537" x1="0.231746" y1="48.8045" x2="28.4191" y2="42.6529" gradientUnits="userSpaceOnUse">
<stop stop-color="#0D748B"/>
<stop offset="1" stop-color="#1A0B73"/>
</linearGradient>
</defs>
</svg>
